<svg width="200" height="63" viewBox="0 0 200 63" fill="none" xmlns="http://www.w3.org/2000/svg">
  <g clip-path="url(#clip0_4489_15488)">
    <path d="M82.4079 44.5403C82.2183 44.1087 81.9113 43.7065 81.488 43.3345C81.0638 42.9625 80.5323 42.6692 79.8927 42.453C79.2531 42.2368 78.5274 42.1287 77.7147 42.1287C76.245 42.1287 74.931 42.4878 73.7737 43.2043C72.6146 43.9218 71.7029 44.8949 71.0376 46.1219C70.3715 47.3497 70.0389 48.6985 70.0389 50.1673C70.0389 51.3255 70.2762 52.3371 70.7527 53.2012C71.2273 54.0661 71.8972 54.7314 72.7621 55.1978C73.6262 55.6642 74.646 55.8978 75.8216 55.8978C76.8937 55.8978 77.8787 55.6688 78.7776 55.2106C79.6765 54.7534 80.36 54.2036 80.8265 53.564L80.6194 54.8349C80.3765 56.2176 79.8066 57.2338 78.9077 57.8816C78.0088 58.5303 76.8763 58.8538 75.511 58.8538C74.5077 58.8538 73.6308 58.6375 72.8785 58.206C72.1262 57.7735 71.5599 57.2805 71.1806 56.728L69.0282 58.8025C69.5633 59.6317 70.3935 60.319 71.5169 60.8641C72.6411 61.4084 74.0239 61.6805 75.6659 61.6805C77.8961 61.6805 79.7333 61.1363 81.1764 60.0468C82.6196 58.9582 83.5322 57.3245 83.9125 55.1456L86.1428 42.5437H82.823L82.4079 44.5403ZM81.1636 50.6859C80.7486 51.429 80.1694 52.0127 79.4263 52.436C78.6823 52.8603 77.8356 53.071 76.8854 53.071C76.1762 53.071 75.5797 52.9418 75.0959 52.6825C74.6112 52.4232 74.2438 52.0521 73.9936 51.5674C73.7426 51.0836 73.618 50.5137 73.618 49.8558C73.618 48.8881 73.803 48.0324 74.175 47.2892C74.5471 46.5461 75.0739 45.9707 75.7566 45.5648C76.4401 45.1588 77.2309 44.9554 78.1298 44.9554C78.8207 44.9554 79.4428 45.0718 79.9972 45.3054C80.5497 45.5382 80.9859 45.8928 81.3066 46.3683C81.6264 46.8439 81.7858 47.4184 81.7858 48.0928C81.7858 49.0778 81.5787 49.9428 81.1636 50.6859Z" fill="#E9005F"></path>
    <path d="M76.7902 23.7622L85.3493 14.3821L84.3331 28.1394H91.1339L92.8143 0.703613H89.4534L76.2037 16.2587L68.5435 0.703613H65.1431L57.3271 28.1394H64.4404L68.2705 14.4215L73.1946 23.7622H76.7902Z" fill="#E9005F"></path>
    <path d="M33.8508 28.1394L36.1177 24.1536H46.9044L47.7254 28.1394H55.0337L48.3502 0.664307H42.9569L26.1511 28.1394H33.8508ZM44.0116 10.2002L45.7709 18.6814H39.2047L44.0116 10.2002Z" fill="#E9005F"></path>
    <path d="M12.4076 44.0087C13.0041 43.239 13.3018 42.3796 13.3018 41.4284C13.3018 40.305 12.8959 39.4098 12.0832 38.7446C11.2704 38.0794 10.0692 37.7458 8.47938 37.7458H3.18869L0 55.8977H5.31546C6.94 55.8977 8.34929 55.6383 9.54231 55.1197C10.7353 54.6011 11.6516 53.8708 12.2912 52.9289C12.9308 51.9869 13.2506 50.8846 13.2506 49.6229C13.2506 48.6204 12.9436 47.7903 12.3297 47.1333C11.7158 46.4763 10.9168 46.0182 9.93083 45.7589C10.9855 45.3612 11.8111 44.7775 12.4076 44.0087ZM9.10156 51.6323C8.7726 52.1427 8.28883 52.5312 7.64926 52.7987C7.00969 53.0672 6.2143 53.201 5.26322 53.201H3.88967L4.92694 47.366H6.55976C7.52829 47.3496 8.27597 47.5566 8.80285 47.9891C9.33063 48.4216 9.59455 48.9998 9.59455 49.7264C9.59455 50.4869 9.42962 51.1229 9.10156 51.6323ZM9.37369 43.5158C9.08875 43.9391 8.68647 44.2726 8.16787 44.5136C7.64926 44.7564 7.04358 44.8774 6.35267 44.8774H5.36764L6.14557 40.2876H7.52002C8.19354 40.2876 8.7424 40.426 9.1666 40.7018C9.58996 40.9786 9.80164 41.4284 9.80164 42.0506C9.80164 42.6041 9.65869 43.0924 9.37369 43.5158Z" fill="#E9005F"></path>
    <path d="M95.0107 38.9133H91.6397L90.9919 42.5437H88.5802L88.1394 45.0846H90.5502L89.3059 52.086C89.0465 53.5557 89.271 54.6232 89.9803 55.2885C90.6886 55.9537 91.6827 56.2872 92.9619 56.2872C93.705 56.2872 94.4619 56.1443 95.2315 55.8593C96.0003 55.5743 96.6876 55.1547 97.2923 54.6013L96.0223 52.579C95.6934 52.8557 95.3479 53.0802 94.9851 53.2534C94.6222 53.4256 94.2676 53.5127 93.9212 53.5127C93.4549 53.5127 93.1131 53.3872 92.8977 53.1361C92.6806 52.886 92.6339 52.4324 92.7548 51.7754L93.9478 45.0846H97.3189L97.7596 42.5437H94.3886L95.0107 38.9133Z" fill="#E9005F"></path>
    <path d="M27.0738 20.5965L21.4074 17.6268C20.4691 19.1112 19.4466 20.2446 18.3387 21.0263C17.231 21.8079 15.8968 22.1992 14.3327 22.1992C13.0829 22.1992 12.0136 21.9123 11.1284 21.3396C10.2423 20.7669 9.57073 19.978 9.11532 18.9747C8.65902 17.9722 8.43179 16.8452 8.43179 15.5945C8.43179 13.8489 8.76349 12.2912 9.42778 10.9241C10.093 9.55607 11.024 8.48765 12.2225 7.71889C13.421 6.95102 14.8275 6.56619 16.4438 6.56619C17.9548 6.56619 19.2578 6.98312 20.3519 7.81693C21.4459 8.65079 22.2532 9.71915 22.7755 11.0212L28.911 7.34782C28.0249 5.18532 26.5854 3.41961 24.5925 2.0516C22.5995 0.683587 20.0128 0 16.8342 0C13.6033 0 10.7436 0.70372 8.25584 2.11027C5.76718 3.51771 3.83286 5.45841 2.45204 7.93421C1.07021 10.4092 0.380249 13.1846 0.380249 16.2588C0.380249 18.708 0.875085 20.8769 1.8656 22.7654C2.85515 24.6557 4.32126 26.1209 6.26196 27.1627C8.20361 28.2045 10.5677 28.7259 13.3559 28.7259C16.6125 28.7259 19.3806 28.0167 21.6613 26.5964C23.941 25.1762 25.7452 23.1759 27.0738 20.5965Z" fill="#E9005F"></path>
    <path d="M50.4613 42.5437L45.8459 51.6196L43.5378 42.5437H41.5924L36.2514 51.6196L34.6433 42.5437H31.2466L34.3061 56.0793H36.6142L41.7748 47.2892L44.0564 56.0793H46.3645L54.0138 42.5437H50.4613Z" fill="#E9005F"></path>
    <path d="M23.3894 42.1287C21.8683 42.1287 20.4939 42.4704 19.2661 43.1531C18.0392 43.8357 17.0752 44.7951 16.3751 46.0311C15.6751 47.2672 15.3251 48.6811 15.3251 50.2709C15.3251 51.4813 15.5752 52.5396 16.0764 53.4476C16.5777 54.3548 17.3089 55.0548 18.2682 55.5478C19.2276 56.0408 20.3556 56.2872 21.6521 56.2872C23.0009 56.2872 24.2453 56.0444 25.386 55.5606C26.5268 55.0768 27.5036 54.3081 28.3164 53.2534L26.1383 51.6453C25.6361 52.2161 25.0442 52.6743 24.3616 53.0197C23.679 53.3661 22.9139 53.5384 22.0672 53.5384C21.3928 53.5557 20.8091 53.422 20.3162 53.1361C19.8241 52.8511 19.4475 52.4406 19.1882 51.9046C18.939 51.3897 18.8162 50.7803 18.807 50.0894H28.9907C29.5259 47.6521 29.3316 45.7159 28.4071 44.281C27.4825 42.8461 25.8094 42.1287 23.3894 42.1287ZM26.1896 47.8848H19.1277C19.201 47.6374 19.2551 47.3763 19.3568 47.1463C19.7288 46.3079 20.2648 45.66 20.9649 45.201C21.6649 44.7437 22.4731 44.5138 23.3894 44.5138C24.4615 44.5138 25.2302 44.8042 25.6976 45.3833C26.164 45.9624 26.328 46.7963 26.1896 47.8848Z" fill="#E9005F"></path>
    <path d="M62.0525 42.1287C60.5314 42.1287 59.157 42.4704 57.9301 43.1531C56.7023 43.8357 55.7383 44.7951 55.0382 46.0311C54.3382 47.2672 53.9882 48.6811 53.9882 50.2709C53.9882 51.4813 54.2383 52.5396 54.7404 53.4476C55.2417 54.3548 55.972 55.0548 56.9313 55.5478C57.8907 56.0408 59.0186 56.2872 60.3152 56.2872C61.664 56.2872 62.9083 56.0444 64.0491 55.5606C65.1908 55.0768 66.1667 54.3081 66.9794 53.2534L64.8014 51.6453C64.3002 52.2161 63.7083 52.6743 63.0256 53.0197C62.342 53.3661 61.577 53.5384 60.7303 53.5384C60.0559 53.5557 59.4722 53.422 58.9801 53.1361C58.4872 52.8511 58.1115 52.4406 57.8522 51.9046C57.6021 51.3897 57.4802 50.7803 57.4701 50.0894H67.6538C68.1899 47.6521 67.9947 45.7159 67.0702 44.281C66.1456 42.8461 64.4724 42.1287 62.0525 42.1287ZM64.8536 47.8848H57.7908C57.865 47.6374 57.9182 47.3763 58.0208 47.1463C58.3919 46.3079 58.9279 45.66 59.628 45.201C60.328 44.7437 61.1362 44.5138 62.0525 44.5138C63.1246 44.5138 63.8943 44.8042 64.3606 45.3833C64.8271 45.9624 64.991 46.7963 64.8536 47.8848Z" fill="#E9005F"></path>
    <path d="M180.181 28.1395H187.843L188.826 22.5813H181.165L180.181 28.1395Z" fill="#E9005F"></path>
    <path d="M167.985 26.5964C170.264 25.1762 172.069 23.1759 173.398 20.5965L167.731 17.6268C166.793 19.1112 165.77 20.2446 164.663 21.0263C163.555 21.8079 162.22 22.1992 160.657 22.1992C159.406 22.1992 158.337 21.9123 157.452 21.3396C156.566 20.7669 155.895 19.978 155.439 18.9747C154.983 17.9722 154.755 16.8452 154.755 15.5945C154.755 13.8489 155.088 12.2912 155.752 10.9241C156.416 9.55607 157.347 8.48765 158.546 7.71889C159.744 6.95102 161.152 6.56619 162.767 6.56619C164.278 6.56619 165.581 6.98312 166.675 7.81693C167.77 8.65079 168.577 9.71915 169.099 11.0212L175.234 7.34782C174.348 5.18532 172.91 3.41961 170.916 2.0516C168.923 0.683587 166.336 0 163.158 0C159.927 0 157.067 0.70372 154.579 2.11027C152.091 3.51771 150.156 5.45841 148.775 7.93421C147.395 10.4092 146.704 13.1846 146.704 16.2588C146.704 18.708 147.198 20.8769 148.189 22.7654C149.179 24.6557 150.645 26.1209 152.586 27.1627C154.527 28.2045 156.891 28.7259 159.679 28.7259C162.937 28.7259 165.705 28.0167 167.985 26.5964Z" fill="#E9005F"></path>
    <path d="M163.753 55.8978H167.151L169.51 42.5437H166.114L163.753 55.8978Z" fill="#E9005F"></path>
    <path d="M159.501 38.9133H156.13L155.482 42.5437H153.07L152.629 45.0846H155.041L153.796 52.086C153.536 53.5557 153.761 54.6232 154.47 55.2885C155.178 55.9537 156.173 56.2872 157.453 56.2872C158.196 56.2872 158.952 56.1443 159.721 55.8593C160.49 55.5743 161.177 55.1547 161.783 54.6013L160.512 52.579C160.183 52.8557 159.838 53.0802 159.475 53.2534C159.112 53.4256 158.758 53.5127 158.412 53.5127C157.945 53.5127 157.604 53.3872 157.388 53.1361C157.171 52.886 157.124 52.4324 157.245 51.7754L158.438 45.0846H161.809L162.249 42.5437H158.878L159.501 38.9133Z" fill="#E9005F"></path>
    <path d="M166.658 39.069H170.185L170.807 35.6714H167.28L166.658 39.069Z" fill="#E9005F"></path>
    <path d="M178.697 0.781738L177.564 7.15185H183.895L181.654 19.8215H189.314L191.555 7.15185H198.867L200 0.781738H178.697Z" fill="#E9005F"></path>
    <path d="M174.904 35.6714L171.325 55.8977H174.722L178.3 35.6714H174.904Z" fill="#E9005F"></path>
    <path d="M182.449 42.5437L176.252 48.1185L176.148 48.7406L180.583 55.8978H184.68L179.883 48.5079L186.598 42.5437H182.449Z" fill="#E9005F"></path>
    <path d="M144.799 55.8978H148.195L150.555 42.5437H147.158L144.799 55.8978Z" fill="#E9005F"></path>
    <path d="M132.442 42.9066C131.448 42.3879 130.26 42.1287 128.877 42.1287C127.165 42.1287 125.665 42.475 124.378 43.1659C123.09 43.8577 122.092 44.8088 121.383 46.0183C120.673 47.2287 120.32 48.6032 120.32 50.1417C120.32 51.3511 120.587 52.4195 121.123 53.3441C121.659 54.2686 122.437 54.9907 123.457 55.5093C124.477 56.0279 125.705 56.2872 127.14 56.2872C128.712 56.2872 130.134 55.9455 131.405 55.2628C132.676 54.5802 133.674 53.6254 134.4 52.3976C135.126 51.1697 135.489 49.7696 135.489 48.1963C135.489 47.0208 135.23 45.9753 134.711 45.059C134.192 44.1427 133.436 43.4252 132.442 42.9066ZM131.379 51.0103C131.007 51.7617 130.476 52.3581 129.784 52.7989C129.093 53.2405 128.298 53.4604 127.399 53.4604C126.258 53.4604 125.385 53.1407 124.779 52.5011C124.175 51.8615 123.872 50.9544 123.872 49.7779C123.872 48.8625 124.066 48.0406 124.456 47.3149C124.844 46.5892 125.385 46.0229 126.076 45.6161C126.768 45.2101 127.555 45.0067 128.436 45.0067C129.577 45.0067 130.446 45.3228 131.042 45.9532C131.639 46.5846 131.937 47.4276 131.937 48.4813C131.937 49.415 131.751 50.258 131.379 51.0103Z" fill="#E9005F"></path>
    <path d="M117.091 38.3946C116.201 37.9621 115.099 37.7458 113.785 37.7458H108.443L105.254 55.8977H108.702L109.844 49.4671H111.71C113.318 49.4671 114.731 49.1858 115.95 48.6241C117.169 48.0624 118.111 47.2717 118.777 46.2518C119.442 45.232 119.775 44.0472 119.775 42.6984C119.775 41.7482 119.55 40.9015 119.101 40.1576C118.651 39.4144 117.981 38.8271 117.091 38.3946ZM115.574 44.9553C115.228 45.5426 114.718 45.9879 114.044 46.2903C113.37 46.5927 112.557 46.7439 111.607 46.7439H110.31L111.425 40.3646H112.903C113.906 40.3646 114.688 40.547 115.25 40.9098C115.812 41.2727 116.093 41.9122 116.093 42.8285C116.093 43.6587 115.92 44.3679 115.574 44.9553Z" fill="#E9005F"></path>
    <path d="M147.702 39.069H151.229L151.851 35.6714H148.325L147.702 39.069Z" fill="#E9005F"></path>
    <path d="M137.279 55.8977H140.675L144.253 35.6714H140.857L137.279 55.8977Z" fill="#E9005F"></path>
    <path d="M114.478 17.7442C116.367 16.8838 117.826 15.6661 118.855 14.0891C119.884 12.5131 120.399 10.6832 120.399 8.59867C120.399 7.11332 120.028 5.7783 119.284 4.59261C118.542 3.40692 117.448 2.47597 116.002 1.79792C114.555 1.12076 112.842 0.781738 110.863 0.781738H100.662L95.8547 28.1396H103.515L105.118 19.0335H107.892C110.394 19.0335 112.588 18.6037 114.478 17.7442ZM106.094 13.5622L107.423 5.94049H108.908C110.002 5.94049 110.876 6.16224 111.527 6.60478C112.178 7.04828 112.504 7.80423 112.504 8.8717C112.504 9.8366 112.309 10.6695 111.917 11.3732C111.527 12.0769 110.96 12.6175 110.218 12.995C109.475 13.3735 108.582 13.5622 107.54 13.5622H106.094Z" fill="#E9005F"></path>
    <path d="M132.178 0.664307L115.372 28.1394H123.071L125.338 24.1536H136.125L136.946 28.1394H144.254L137.571 0.664307H132.178ZM128.425 18.6814L133.233 10.2002L134.992 18.6814H128.425Z" fill="#E9005F"></path>
  </g>
</svg>